<svg width="33" height="34" viewBox="0 0 33 34" fill="none" xmlns="http://www.w3.org/2000/svg">
<path d="M13.1738 1.55222C14.9744 -0.370725 18.0256 -0.370725 19.8262 1.55222V1.55222C20.8073 2.59988 22.2254 3.12403 23.6521 2.96696V2.96696C26.2344 2.68265 28.5345 4.60873 28.7057 7.20105L28.7176 7.38066C28.813 8.82421 29.5643 10.1458 30.7553 10.9672V10.9672C32.9338 12.4696 33.4397 15.5012 31.9069 17.6585V17.6585C31.0659 18.8421 30.7936 20.3596 31.1869 21.7572L31.2297 21.9092C31.9377 24.4253 30.4292 27.031 27.8958 27.674V27.674C26.4998 28.0283 25.3462 29.0114 24.7761 30.3339L24.7294 30.442C23.6978 32.8352 20.8637 33.8653 18.5361 32.6933V32.6933C17.2553 32.0483 15.7447 32.0483 14.4639 32.6933V32.6933C12.1363 33.8653 9.30225 32.8352 8.27057 30.442L8.22395 30.3339C7.65381 29.0114 6.50016 28.0283 5.10425 27.674V27.674C2.57075 27.031 1.06232 24.4253 1.77032 21.9092L1.81307 21.7572C2.20635 20.3596 1.93408 18.8421 1.09312 17.6585V17.6585C-0.43967 15.5012 0.0661598 12.4696 2.24472 10.9672V10.9672C3.43566 10.1458 4.18703 8.82421 4.28239 7.38066L4.29426 7.20104C4.4655 4.60873 6.76557 2.68265 9.34793 2.96696V2.96696C10.7746 3.12403 12.1927 2.59988 13.1738 1.55222V1.55222Z" fill="#EB6D15"/>
</svg>