<svg width="2048" height="2048" viewBox="0 0 2048 2048" fill="none" xmlns="http://www.w3.org/2000/svg">
<path d="M168.698 1262.93C162.948 1262.93 157.328 1260.66 152.128 1258.56C144.258 1255.38 137.458 1252.64 131.128 1257.05C130.726 1257.33 130.272 1257.53 129.792 1257.64C129.312 1257.74 128.816 1257.76 128.333 1257.67C127.849 1257.58 127.387 1257.4 126.972 1257.14C126.558 1256.88 126.2 1256.53 125.918 1256.13C125.637 1255.73 125.437 1255.27 125.331 1254.79C125.224 1254.31 125.214 1253.82 125.299 1253.34C125.385 1252.85 125.564 1252.39 125.829 1251.97C126.093 1251.56 126.436 1251.2 126.838 1250.92C136.468 1244.18 146.258 1248.14 154.898 1251.62C162.768 1254.79 169.568 1257.54 175.898 1253.12C182.228 1248.7 181.898 1241.39 181.648 1232.9C181.328 1223.59 180.958 1213.04 190.588 1206.29C200.218 1199.54 210.018 1203.5 218.658 1206.99C226.528 1210.16 233.318 1212.91 239.658 1208.48C245.998 1204.05 245.708 1196.74 245.418 1188.26C245.098 1178.95 244.728 1168.39 254.358 1161.65C263.988 1154.91 273.788 1158.85 282.428 1162.34C290.298 1165.52 297.098 1168.25 303.428 1163.84C304.241 1163.27 305.247 1163.05 306.225 1163.22C307.203 1163.39 308.073 1163.94 308.643 1164.76C309.213 1165.57 309.437 1166.57 309.266 1167.55C309.094 1168.53 308.541 1169.4 307.728 1169.97C298.088 1176.71 288.298 1172.76 279.658 1169.28C271.788 1166.1 264.988 1163.36 258.658 1167.78C252.328 1172.2 252.608 1179.52 252.908 1188C253.228 1197.31 253.588 1207.87 243.908 1214.62C234.228 1221.37 224.488 1217.41 215.848 1213.93C207.968 1210.74 201.178 1208.01 194.848 1212.42C188.518 1216.83 188.848 1224.16 189.098 1232.64C189.418 1241.95 189.788 1252.51 180.158 1259.25C176.824 1261.66 172.811 1262.95 168.698 1262.93Z" fill="#C8C7F9"/>
<path d="M1009.49 282.999C1007.99 283.005 1006.54 282.468 1005.4 281.487C1004.26 280.507 1003.52 279.149 1003.3 277.663C1003.09 276.177 1003.42 274.663 1004.23 273.4C1005.04 272.137 1006.28 271.21 1007.72 270.789C1045.17 259.679 1075.72 228.069 1085.52 190.269C1085.73 189.477 1086.09 188.732 1086.58 188.078C1087.07 187.425 1087.69 186.874 1088.39 186.459C1089.1 186.043 1089.88 185.77 1090.69 185.656C1091.5 185.542 1092.32 185.589 1093.12 185.794C1093.91 185.999 1094.65 186.358 1095.31 186.85C1095.96 187.343 1096.51 187.96 1096.93 188.665C1097.34 189.37 1097.61 190.15 1097.73 190.961C1097.84 191.771 1097.8 192.597 1097.59 193.389C1086.7 235.389 1052.82 270.389 1011.26 282.739C1010.69 282.913 1010.09 283 1009.49 282.999Z" fill="#FF9E00"/>
<path d="M1816.05 1043.54C1814.6 1043.53 1813.2 1043 1812.12 1042.05C1811.03 1041.09 1810.32 1039.77 1810.13 1038.34C1809.94 1036.9 1810.27 1035.45 1811.07 1034.24C1811.87 1033.03 1813.07 1032.15 1814.47 1031.76C1857.47 1019.92 1894.47 986.849 1911.16 945.459C1911.78 944.032 1912.94 942.904 1914.38 942.315C1915.83 941.725 1917.44 941.72 1918.89 942.301C1920.34 942.882 1921.5 944.003 1922.13 945.427C1922.77 946.851 1922.82 948.465 1922.29 949.929C1904.29 994.719 1864.19 1030.51 1817.65 1043.33C1817.13 1043.47 1816.59 1043.54 1816.05 1043.54Z" fill="#FF9E00"/>
<path d="M1766.76 1228C1727.42 1228 1688.47 1208.83 1664.58 1177.54C1664.07 1176.92 1663.69 1176.2 1663.46 1175.42C1663.23 1174.65 1663.16 1173.84 1663.25 1173.04C1663.35 1172.24 1663.6 1171.47 1664 1170.77C1664.4 1170.06 1664.93 1169.45 1665.57 1168.96C1666.21 1168.47 1666.95 1168.12 1667.73 1167.92C1668.51 1167.72 1669.32 1167.68 1670.12 1167.8C1670.91 1167.92 1671.68 1168.2 1672.36 1168.62C1673.05 1169.05 1673.64 1169.6 1674.11 1170.26C1696.27 1199.26 1732.69 1216.79 1769.2 1215.98C1769.99 1215.96 1770.77 1216.1 1771.51 1216.38C1772.24 1216.67 1772.91 1217.09 1773.48 1217.64C1774.05 1218.18 1774.51 1218.83 1774.83 1219.55C1775.15 1220.27 1775.32 1221.05 1775.34 1221.84C1775.36 1222.63 1775.22 1223.41 1774.94 1224.15C1774.65 1224.88 1774.22 1225.55 1773.68 1226.12C1773.14 1226.69 1772.49 1227.15 1771.76 1227.47C1771.04 1227.79 1770.27 1227.96 1769.48 1227.98C1768.57 1228 1767.67 1228 1766.76 1228Z" fill="#C8C7F9"/>
<path d="M1071.05 838.12C1071.05 838.12 1061.97 814.77 1054.68 809.51C1047.39 804.25 1035.68 786.88 1031.96 791.22C1028.24 795.56 1038.33 807.48 1035.77 813C1033.21 818.52 990.672 814.72 988.912 820.87C987.152 827.02 991.372 844.69 1006.99 847.97C1022.61 851.25 1059.27 856.97 1073.05 859.97C1082.07 862 1071.05 838.12 1071.05 838.12Z" fill="#E35B27"/>
<path d="M440.058 704.191C424.603 699.752 411.486 689.466 403.488 675.517C395.49 661.567 393.241 645.051 397.218 629.471L505.438 201.891L529.438 212.561C507.558 322.261 512.158 446.721 480.088 564.711C467.175 612.237 453.831 658.731 440.058 704.191Z" fill="#FF94A3"/>
<path d="M504.999 201.14C504.999 201.14 501.999 180.45 507.319 166.81C512.959 152.42 514.209 136.81 518.719 143C523.229 149.19 519.439 166.73 523.389 166.17C525.129 165.92 530.469 162.9 532.569 154.47C535.239 143.77 528.759 129.71 537.649 131.09C546.149 132.42 557.549 171.89 551.899 182.61C546.249 193.33 525.259 218.71 525.259 218.71L504.999 201.14Z" fill="#FF94A3"/>
<path d="M888.282 259.36C867.382 238.74 835.662 229.51 807.122 236.42C786.362 241.42 768.272 254.15 752.322 268.35C736.372 282.55 721.982 298.5 705.322 311.87C690.322 323.87 673.412 333.78 655.032 339.53C633.612 346.23 612.232 343.83 590.202 343.22C558.202 342.33 528.682 355.34 522.292 389.41C517.142 416.82 530.672 448.25 555.612 461.52C576.032 472.38 601.262 468.71 622.872 460.46C644.482 452.21 664.422 439.75 686.552 433.01C744.212 415.47 811.332 438.19 864.202 409.25C890.002 395.15 909.002 369.1 913.922 340.14C918.842 311.18 909.182 280 888.282 259.36Z" fill="#908CEA"/>
<path d="M526.671 394.79C526.579 394.79 526.489 394.772 526.404 394.737C526.32 394.701 526.243 394.65 526.179 394.584C526.115 394.519 526.064 394.442 526.03 394.357C525.996 394.272 525.979 394.181 525.981 394.09C525.981 368.17 542.811 343.95 565.981 336.49C576.861 332.98 588.491 333.06 599.741 333.14C604.821 333.14 610.081 333.22 615.181 332.92C632.546 331.846 649.456 326.93 664.69 318.525C679.924 310.12 693.101 298.437 703.271 284.32C707.561 278.32 711.341 271.81 715.001 265.5C719.521 257.7 724.211 249.62 729.921 242.41C742.121 227.01 758.101 218.66 772.691 220.06C772.781 220.069 772.869 220.095 772.95 220.138C773.03 220.181 773.101 220.24 773.159 220.311C773.217 220.381 773.26 220.463 773.286 220.55C773.312 220.638 773.32 220.729 773.311 220.82C773.304 220.911 773.28 221 773.238 221.081C773.197 221.162 773.139 221.233 773.069 221.291C772.999 221.349 772.918 221.392 772.83 221.418C772.743 221.444 772.651 221.451 772.561 221.44C758.441 220.07 742.911 228.24 731.001 243.27C725.351 250.4 720.701 258.43 716.191 266.2C712.521 272.53 708.731 279.07 704.401 285.13C694.108 299.412 680.773 311.232 665.358 319.735C649.942 328.238 632.832 333.213 615.261 334.3C610.111 334.6 604.841 334.56 599.741 334.53C588.591 334.45 577.071 334.37 566.401 337.8C543.801 345.08 527.401 368.8 527.401 394.09C527.402 394.185 527.384 394.279 527.347 394.367C527.311 394.454 527.257 394.533 527.188 394.599C527.12 394.665 527.038 394.716 526.949 394.749C526.86 394.781 526.765 394.796 526.671 394.79Z" fill="#908CEA"/>
<path d="M632.599 466.61C624.244 466.665 615.929 465.447 607.939 463C607.853 462.973 607.772 462.93 607.702 462.872C607.633 462.814 607.575 462.742 607.533 462.662C607.447 462.5 607.43 462.31 607.484 462.135C607.539 461.96 607.66 461.814 607.822 461.729C607.985 461.643 608.174 461.626 608.349 461.68C626.599 467.43 649.479 466.07 669.539 458.05C672.249 456.97 674.959 455.85 677.679 454.73C693.809 448.09 710.479 441.22 728.049 441.05C740.359 440.96 752.449 444.15 764.149 447.27C771.971 449.515 779.918 451.298 787.949 452.61C801.863 454.49 816.013 453.513 829.536 449.739C843.059 445.965 855.67 439.473 866.599 430.66C866.742 430.553 866.921 430.505 867.098 430.527C867.275 430.548 867.437 430.638 867.55 430.776C867.662 430.915 867.717 431.092 867.702 431.27C867.687 431.447 867.604 431.613 867.469 431.73C856.394 440.669 843.612 447.254 829.905 451.083C816.198 454.912 801.853 455.905 787.749 454C779.651 452.679 771.637 450.883 763.749 448.62C752.139 445.53 740.149 442.34 728.029 442.46C710.719 442.62 694.169 449.46 678.169 456.03C675.439 457.15 672.729 458.27 670.009 459.36C658.104 464.102 645.414 466.561 632.599 466.61Z" fill="#908CEA"/>
<path d="M500.311 536.48L500.171 536.54C499.921 536.5 500.001 536.48 500.311 536.48Z" fill="#FFB27D"/>
<path d="M597.699 508.45C598.879 519 600.289 528.45 600.909 532.97C606.199 571.17 451.739 613.66 444.329 596.7C440.329 587.52 483.569 574.06 510.779 523.36C527.239 492.69 530.779 461.58 530.609 437.93L598.329 442.21L602.329 442.46C600.01 451.016 598.174 459.697 596.829 468.46C596.659 469.55 596.509 470.66 596.359 471.73C595.149 480.74 596.239 495.42 597.699 508.45Z" fill="#FF94A3"/>
<path d="M521.28 431.11C521.28 431.11 510.28 396.3 512.52 369.6C514.1 350.55 541.24 285.53 606.52 313.2C619.673 318.707 631.422 327.097 640.9 337.75C652.99 351.59 668.55 378.68 629.21 431.26L617.77 449.52L521.28 431.11Z" fill="#908CEA"/>
<path d="M597.701 508.449C550.331 494.579 530.23 439.869 530.23 439.869C550.23 440.459 576.37 454.359 596.85 468.489C596.68 469.579 596.53 470.689 596.38 471.759C595.15 480.739 596.241 495.419 597.701 508.449Z" fill="#F2758A"/>
<path d="M601.052 489.23C601.052 489.23 515.482 468.08 529.472 415C543.462 361.92 541.842 323.44 597.072 334.7C652.302 345.96 657.532 369 657.172 387.85C656.812 406.7 623.672 493.36 601.052 489.23Z" fill="#FF94A3"/>
<path d="M662.45 357.68C636.98 317.39 606.61 313.2 606.45 313.2C584.73 298.62 556 334.4 556 334.4C549.701 348.754 540.173 361.461 528.16 371.53C526.028 373.337 524.451 375.71 523.612 378.376C522.773 381.042 522.706 383.89 523.419 386.593C524.131 389.295 525.594 391.74 527.638 393.645C529.682 395.551 532.224 396.839 534.97 397.36C542.636 398.773 550.415 399.482 558.21 399.48C569.89 399.57 581.71 394.38 592.5 387.15C571.59 407.6 547.23 419.87 547.23 419.87C593.12 411.8 625.23 361.25 630.91 351.71C637.09 361.64 643.22 373.18 643.55 380.34C644.22 394.98 638.76 423.34 647.12 424.5C647.08 424.5 679.6 384.81 662.45 357.68Z" fill="#908CEA"/>
<path d="M587.691 455.2C587.691 455.2 588.761 463.28 593.921 465.2C599.081 467.12 612.761 470.58 614.151 469.72C615.541 468.86 620.661 462.56 620.661 462.56C620.661 462.56 599.101 454.28 587.691 455.2Z" fill="white"/>
<path d="M555.74 1267.17L552.5 1280.67C546.05 1307.47 540.04 1332.33 536.26 1353.13C531.34 1380.2 530.18 1400.33 536.64 1408.8C563.21 1443.64 536.64 1720.12 536.64 1720.12L510.78 1771.91C510.78 1771.91 453.78 1478.3 439.55 1435.53C433.06 1416.09 423.61 1333.04 415.27 1248.26C414.84 1244.03 414.43 1239.78 414.02 1235.54C412.58 1220.71 411.19 1205.94 409.85 1191.54C402.37 1111.33 396.77 1042.65 396.77 1042.65C396.77 1042.65 452.54 1003.44 503.22 999.07C533.07 996.47 561.14 1005.97 575.01 1042.65C595.21 1096 574.74 1188.12 555.74 1267.17Z" fill="#FF94A3"/>
<path d="M547.239 1285.53C508.189 1243 482.489 1182 434.839 1096.71C430.839 1053.32 465.019 1012.08 503.219 999.05C533.069 996.45 561.139 1005.95 575.009 1042.63C595.209 1096 566.239 1206.47 547.239 1285.53Z" fill="#F2758A"/>
<path d="M706.87 740L910.52 792.6V816.37C910.52 816.37 707.86 814 694.78 791.37C681.7 768.74 706.87 740 706.87 740Z" fill="#FF94A3"/>
<path d="M910.519 1523.64L900.999 1562.93C900.999 1562.93 625.519 1420.67 589.889 1393.35C575.569 1382.35 556.659 1322.76 539.139 1255.35C513.049 1154.84 490.059 1036.95 490.059 1036.95C490.059 1036.95 528.679 888.449 632.059 979.339C693.929 1033.73 684.299 1138.53 677.529 1220.05C673.019 1274.74 669.769 1318.96 690.289 1330.42C730.289 1352.75 847.729 1455.61 884.889 1526.42L910.519 1523.64Z" fill="#FF94A3"/>
<path d="M785.099 824.16C767.939 842.28 744.679 853.01 706.869 847.44C690.389 845.02 661.319 826.58 646.149 796.09C643.879 791.55 625.489 739.46 625.489 739.46C625.489 739.46 604.149 802.15 614.279 819.87C614.679 820.57 614.089 821.39 614.029 821.87L613.899 823C613.559 825.62 615.459 835.26 615.459 835.26C615.459 835.26 524.919 874.83 444.849 835.88C444.699 835.81 444.549 835.75 444.389 835.66C440.389 833.66 436.389 831.56 432.389 829.16C431.759 823.05 430.689 813.77 428.939 802.55C417.049 726 396.399 706.24 401.399 671.43C407.029 632.16 440.569 606.75 446.749 602.06C490.419 568.98 530.379 594.82 574.809 552.71C583.249 544.71 592.809 533.36 610.109 529.38C640.369 522.38 669.109 543.06 672.389 547.57C682.559 561.57 687.929 587.64 705.589 637.07C705.589 637.07 705.589 637.07 705.589 637.2C738.759 729.9 787.419 712.49 806.759 739.94C819.999 758.66 812.739 794.94 785.099 824.16Z" fill="#FCA9E1"/>
<path d="M910.52 792.551C910.52 792.551 947.89 774.151 962.74 772.371C977.59 770.591 1002.55 769.991 1002.55 772.371C1002.55 774.751 975.81 791.371 968.68 792.551C961.55 793.731 947.889 803.851 952.049 805.041C956.209 806.231 978.189 801.181 978.479 805.041C978.769 808.901 965.12 811.281 962.74 814.251C960.36 817.221 952.05 820.781 938.68 819.001C925.31 817.221 910.52 816.321 910.52 816.321V792.551Z" fill="#FF94A3"/>
<path d="M632.159 756.799C632.159 756.799 628.019 754.619 620.659 715.279L596.989 754.279C563.199 809.939 493.079 831.959 433.859 804.909C431.859 803.999 430.229 803.189 428.969 802.539C430.889 819.229 432.419 829.149 432.419 829.149C436.208 831.685 440.225 833.861 444.419 835.649C444.579 835.739 444.729 835.799 444.879 835.869C457.509 841.399 478.439 847.459 509.679 847.459C538.539 847.459 569.569 839.459 613.929 822.989L614.059 821.939C614.119 821.409 614.209 820.699 614.309 819.939L613.309 811.229C612.133 801.329 613.225 791.291 616.501 781.875C619.777 772.459 625.152 763.912 632.219 756.879L632.159 756.799Z" fill="#FF94A3"/>
<path d="M440.08 1870.61H471C475.429 1870.59 479.802 1869.62 483.82 1867.75C489.27 1865.3 492.64 1861.22 494.76 1855.75C501.54 1838.07 508.21 1820.34 516.43 1803.25C519.253 1797.29 522.995 1791.8 527.52 1787C530.632 1783.58 534.582 1781.02 538.98 1779.59C543.19 1778.33 546.98 1780.59 547.55 1785.02C548.23 1790.56 548.89 1796.14 549.07 1801.71C549.64 1820.15 549.99 1838.6 550.44 1857.04C550.52 1860.66 550.72 1864.28 550.81 1867.9C550.88 1870.44 552.56 1870.52 554.47 1870.53C556.38 1870.54 557.65 1869.94 557.71 1867.72C557.85 1862.82 558.22 1857.92 558.24 1853.02C558.24 1838.89 558.94 1824.77 559.54 1810.66C560.213 1796.04 562.62 1781.55 566.71 1767.5C570.37 1754.71 567.2 1743.63 558.97 1733.5C554.09 1727.5 549.13 1721.5 543.97 1715.79C541.21 1712.73 540.83 1712.79 538.13 1716.03C532.13 1723.3 526.81 1731.03 521.54 1738.9C511.88 1753.22 502.62 1767.78 495.38 1783.55C489.047 1796.94 481.969 1809.96 474.18 1822.55C467.95 1832.88 459.18 1839.08 447.82 1842.85C433.3 1847.67 419.03 1853.22 404.38 1857.69C402.594 1858.26 400.907 1859.11 399.38 1860.2C395.64 1862.79 395.96 1866.7 400 1868.8C402.581 1870.03 405.423 1870.61 408.28 1870.5H440.09L440.08 1870.61Z" fill="#FAD7C4"/>
<path d="M949.908 1649.53L964.748 1622.39C966.848 1618.49 968.086 1614.19 968.378 1609.77C968.848 1603.77 966.878 1598.9 963.048 1594.39C950.798 1579.96 938.448 1565.6 927.388 1550.2C923.538 1544.86 920.546 1538.96 918.518 1532.7C917.014 1528.33 916.67 1523.64 917.518 1519.1C918.448 1514.8 922.288 1512.55 926.398 1514.18C931.588 1516.24 936.798 1518.34 941.778 1520.86C958.228 1529.2 974.578 1537.75 990.978 1546.2C994.198 1547.86 997.458 1549.43 1000.69 1551.08C1002.95 1552.24 1003.83 1550.8 1004.75 1549.08C1005.67 1547.36 1005.75 1546.02 1003.84 1544.9C999.598 1542.43 995.488 1539.75 991.198 1537.38C978.818 1530.56 966.748 1523.21 954.648 1515.92C942.141 1508.32 930.583 1499.25 920.218 1488.92C910.758 1479.57 899.508 1477.03 886.628 1479.37C878.998 1480.76 871.408 1482.27 863.878 1484.06C859.878 1485.06 859.728 1485.37 861.288 1489.3C864.788 1498.07 869.068 1506.46 873.398 1514.83C881.328 1530.18 889.668 1545.29 900.018 1559.2C908.739 1571.18 916.778 1583.64 924.098 1596.53C930.168 1606.94 931.388 1617.64 929.258 1629.39C926.528 1644.39 924.538 1659.63 921.438 1674.63C921.093 1676.47 921.032 1678.34 921.258 1680.2C921.738 1684.73 925.318 1686.32 929.098 1683.78C931.417 1682.1 933.291 1679.88 934.558 1677.32C939.658 1668.03 944.745 1658.73 949.818 1649.42L949.908 1649.53Z" fill="#FAD7C4"/>
<path d="M545.211 968.32C545.321 926.49 547.671 884.65 549.031 842.82C549.121 839.91 549.031 836.97 549.191 834.08C544.411 834.54 539.697 834.903 535.051 835.17C535.651 836.77 535.521 838.94 535.521 840.7C535.647 942.847 535.747 1045 535.821 1147.15C540.421 1146.33 545.071 1145.45 549.821 1144.47C549.131 1131.94 548.531 1119.39 548.181 1106.84C546.851 1060.68 545.091 1014.5 545.211 968.32Z" fill="#FFD6C2"/>
<path d="M570.711 1054.73H569.891C569.891 1029.55 569.361 1004.35 570.031 979.19C570.744 952.77 572.077 926.373 574.031 900C575.771 876.49 578.491 853 580.881 829.59C572.601 831.17 564.361 832.4 556.251 833.34C556.111 842.58 555.591 851.83 555.251 861.07C553.901 902.93 552.581 944.78 551.141 990.24C552.751 1034.6 554.441 1082.49 556.281 1130.38C556.441 1134.57 556.651 1138.76 556.881 1142.95C563.407 1141.5 570.027 1139.89 576.741 1138.13C575.687 1128.98 574.837 1119.81 574.191 1110.61C573.001 1092 571.881 1073.36 570.711 1054.73Z" fill="#FFD6C2"/>
<path d="M514.562 956.62C514.562 929.32 512.332 902.01 510.842 874.72C510.262 864.04 508.722 853.41 508.222 842.72C508.112 840.49 509.822 838.18 511.032 835.9C495.453 835.925 479.883 835.164 464.382 833.62C464.982 837.88 465.512 842.16 465.932 846.45C467.932 867.25 469.838 888.06 471.652 908.88C472.422 918.01 473.002 927.17 473.202 936.32C473.832 965.19 474.842 994.06 474.542 1022.92C474.292 1047.1 472.542 1071.27 471.172 1095.43C470.352 1109.9 469.122 1124.36 467.842 1138.8C467.542 1142.14 466.292 1145.4 465.482 1148.69L462.412 1148.76C461.632 1146.02 459.892 1143.16 460.192 1140.54C465.436 1094.3 467.927 1047.78 467.652 1001.24C467.582 974.77 466.792 948.24 465.012 921.86C463.012 892.12 459.622 862.48 456.792 832.79C453.032 832.35 449.642 831.91 446.662 831.48C448.192 845.57 449.662 859.68 450.592 873.82C451.912 893.66 452.592 913.55 453.592 933.42H452.452C452.452 950.72 453.102 968.05 452.282 985.32C451.212 1007.95 449.992 1030.67 447.002 1053.11C442.822 1084.43 437.002 1115.54 431.702 1146.7C431.382 1148.58 429.422 1150.17 428.222 1151.9C426.952 1149.82 424.662 1147.74 424.642 1145.65C424.642 1141.78 425.802 1137.89 426.642 1134.04C435.222 1094.63 440.322 1054.74 443.322 1014.54C446.464 974.683 446.939 934.66 444.742 894.74C443.472 873.24 441.132 851.79 439.222 830.32C434.832 829.6 432.422 829.1 432.422 829.1C432.422 829.1 430.762 834.7 428.132 845.16C428.722 849.95 429.212 854.75 429.512 859.57C430.662 878.19 431.372 896.85 432.512 920.34C431.042 941.95 429.892 968.34 427.302 994.66C423.664 1030.12 416.741 1065.18 406.622 1099.36C406.112 1101.1 403.962 1102.36 402.572 1103.84C401.572 1102.04 399.432 1100.06 399.692 1098.47C400.782 1091.9 402.442 1085.4 404.172 1078.95C413.272 1044.53 419.296 1009.36 422.172 973.87C425.315 938.714 425.499 903.356 422.722 868.17C418.442 887.36 413.292 913.07 408.442 944.12C394.442 1033.81 389.262 1152.44 389.262 1152.44C427.193 1156.39 465.441 1156.2 503.332 1151.88C506.592 1123.69 509.852 1095.46 511.492 1067.15C513.602 1030.39 514.562 993.48 514.562 956.62ZM495.732 986.84C495.232 1007.05 494.268 1027.24 492.842 1047.43C491.182 1070.43 488.842 1093.43 486.552 1116.43C486.272 1119.29 486.152 1123.61 482.072 1123.06C480.702 1122.87 478.792 1117.87 479.072 1115.3C485.405 1063.44 488.667 1011.25 488.842 959V946.57H489.902L485.792 852.2C485.792 851.2 485.392 849.88 485.862 849.13C487.08 847.374 488.416 845.703 489.862 844.13C490.862 845.86 492.772 847.54 492.862 849.34C496.352 895.1 496.852 941 495.732 986.84Z" fill="#FFD6C2"/>
<path d="M528.251 1018.87C528.251 959.49 528.251 900.113 528.251 840.74C528.251 839.16 527.921 837.11 528.251 835.52C522.751 835.76 517.361 835.88 512.141 835.9C513.541 837.9 515.351 839.79 515.521 841.9C520.521 901.76 523.911 961.68 521.011 1021.78C520.241 1037.78 519.961 1053.78 518.801 1069.78C517.501 1087.93 515.791 1106.05 513.671 1124.13C512.671 1133.13 511.511 1142.13 510.371 1151.13C516.271 1150.37 522.271 1149.49 528.371 1148.5C528.371 1105.32 528.371 1062.14 528.371 1018.96L528.251 1018.87Z" fill="#FFD6C2"/>
<path d="M596.999 1043.67C595.509 1028.82 595.088 1013.87 593.728 999.009C591.358 971.517 590.93 943.892 592.449 916.339C593.569 893.939 594.649 871.529 595.949 849.129C596.389 841.609 597.358 834.129 598.168 826.609C594.848 827.169 591.539 827.669 588.269 828.219C588.089 831.309 587.788 834.409 587.478 837.489C585.388 858.099 582.889 878.679 581.179 899.319C577.029 949.389 575.669 999.539 578.179 1049.73C579.639 1078.55 582.119 1107.32 584.179 1136.12C592.399 1133.82 600.732 1131.25 609.179 1128.42C607.059 1117.13 605.009 1105.83 603.279 1094.48C600.729 1077.61 598.689 1060.65 596.999 1043.67Z" fill="#FFD6C2"/>
<path d="M700.281 960.999C688.545 952.549 677.726 942.893 668.001 932.189C672.571 949.009 679.001 965.189 688.601 979.989C691.681 984.739 695.721 988.849 699.211 993.349C700.751 995.349 702.001 997.519 703.601 999.939C702.201 1002.3 701.341 1004.66 699.681 1006.06C699.141 1006.51 696.111 1004.78 694.851 1003.45C680.481 988.179 671.941 969.619 665.391 950.029C662.011 939.9 659.223 929.582 657.041 919.129C651.439 911.862 646.299 904.251 641.651 896.339C643.941 930.166 650.538 963.562 661.281 995.719C667.469 1014.37 675.639 1032.31 685.651 1049.22C687.266 1052.31 687.794 1055.86 687.151 1059.29C686.461 1062.86 683.261 1062.9 681.321 1059.65C671.111 1042.6 662.261 1024.82 656.401 1005.87C650.401 986.409 644.921 966.689 640.881 946.749C636.515 925.135 634.033 903.183 633.461 881.139C629.653 873.371 626.275 865.399 623.341 857.259C622.111 879.549 620.271 901.859 620.631 924.129C621.061 950.529 623.401 976.959 626.131 1003.25C629.271 1033.5 635.721 1063.25 644.341 1092.4C645.114 1094.83 645.372 1097.4 645.101 1099.94C644.901 1101.39 642.971 1102.6 641.821 1103.94C640.681 1102.58 639.001 1101.39 638.491 1099.83C636.478 1094.14 634.809 1088.33 633.491 1082.44C628.491 1057.62 622.491 1032.92 619.311 1007.85C615.421 976.849 614.031 945.629 611.791 917.489C613.791 889.199 615.611 863.799 617.431 838.489C615.601 831.629 614.521 826.259 613.891 822.949C611.301 823.8 608.667 824.515 606.001 825.089C606.066 825.888 606.066 826.691 606.001 827.489C603.841 854.319 600.801 881.109 599.551 907.989C597.246 954.675 598.895 1001.47 604.481 1047.88C607.691 1073.95 612.481 1099.83 616.891 1125.75C622.381 1123.81 627.891 1121.75 633.461 1119.61C701.109 1093.03 762.449 1052.59 813.541 1000.89C792.591 999.639 745.911 993.869 700.281 960.999Z" fill="#FFD6C2"/>
<path d="M511.531 834.9C511.381 835.23 511.211 835.57 511.031 835.9H512.211C512.001 835.57 511.741 835.23 511.531 834.9Z" fill="#EC8969"/>
<path d="M518.87 1069.73C520.03 1053.73 520.31 1037.73 521.08 1021.73C523.98 961.63 520.61 901.73 515.59 841.85C515.42 839.79 513.59 837.85 512.21 835.85H511C509.79 838.13 508.08 840.44 508.19 842.67C508.69 853.35 510.19 863.98 510.81 874.67C512.3 901.96 514.53 929.27 514.53 956.57C514.53 993.43 513.53 1030.34 511.43 1067.13C509.79 1095.44 506.53 1123.67 503.27 1151.86C505.63 1151.59 508.01 1151.3 510.41 1150.99C511.55 1141.99 512.67 1132.99 513.71 1123.99C515.823 1106 517.543 1087.91 518.87 1069.73Z" fill="#EC8969"/>
<path d="M535.05 835.17C532.79 835.31 530.54 835.42 528.32 835.52C527.97 837.11 528.32 839.16 528.32 840.74C528.26 900.12 528.26 959.497 528.32 1018.87H528.51C528.51 1062.05 528.51 1105.23 528.51 1148.41C530.95 1148.01 533.403 1147.59 535.87 1147.15C535.79 1045 535.69 942.847 535.57 840.7C535.52 838.94 535.65 836.77 535.05 835.17Z" fill="#EC8969"/>
<path d="M551.222 990.23C552.662 944.77 553.982 902.92 555.332 861.06C555.632 851.82 556.152 842.57 556.332 833.33C553.952 833.597 551.585 833.847 549.232 834.08C549.062 836.97 549.162 839.91 549.072 842.82C547.712 884.65 545.362 926.49 545.252 968.32C545.132 1014.5 546.892 1060.68 548.182 1106.84C548.532 1119.39 549.182 1131.94 549.822 1144.47C552.202 1143.98 554.595 1143.47 557.002 1142.94C556.772 1138.75 556.562 1134.56 556.402 1130.37C554.522 1082.48 552.832 1034.59 551.222 990.23Z" fill="#EC8969"/>
<path d="M612.629 1146.65C613.039 1148.83 614.549 1150.8 615.699 1153.17C621.699 1149.78 620.199 1145.44 619.559 1141.47C618.713 1136.23 617.836 1131 616.929 1125.77C614.349 1126.68 611.773 1127.57 609.199 1128.42C610.339 1134.5 611.483 1140.58 612.629 1146.65Z" fill="#EC8969"/>
<path d="M599.591 908C600.841 881.12 603.881 854.33 606.041 827.5C606.106 826.701 606.106 825.898 606.041 825.1C603.441 825.68 600.821 826.16 598.191 826.6C597.381 834.1 596.411 841.6 595.971 849.12C594.671 871.52 593.591 893.93 592.471 916.33C590.942 943.881 591.36 971.507 593.721 999C595.081 1013.86 595.501 1028.81 596.991 1043.66C598.691 1060.66 600.731 1077.6 603.301 1094.47C605.031 1105.82 607.081 1117.12 609.201 1128.41C611.768 1127.55 614.344 1126.67 616.931 1125.76C612.511 1099.84 607.731 1073.96 604.521 1047.89C598.935 1001.48 597.286 954.685 599.591 908Z" fill="#EC8969"/>
<path d="M443.321 1014.57C440.321 1054.77 435.221 1094.66 426.641 1134.07C425.811 1137.92 424.641 1141.81 424.641 1145.68C424.641 1147.77 426.951 1149.85 428.221 1151.93C429.421 1150.2 431.381 1148.61 431.701 1146.73C437.001 1115.57 442.821 1084.46 447.001 1053.14C450.001 1030.7 453.671 1003.53 454.741 980.9C455.561 963.63 451.901 893.67 450.581 873.83C449.631 859.69 448.181 845.58 446.651 831.49C443.761 831.08 441.271 830.69 439.211 830.35C441.121 851.82 443.461 873.27 444.731 894.77C446.931 934.69 446.46 974.712 443.321 1014.57Z" fill="#EC8969"/>
<path d="M467.649 1001.25C467.924 1047.79 465.433 1094.31 460.189 1140.55C459.889 1143.17 461.629 1146.03 462.409 1148.77L465.479 1148.7C466.289 1145.41 467.539 1142.15 467.839 1138.81C469.119 1124.37 470.349 1109.91 471.169 1095.44C472.529 1071.28 474.289 1047.11 474.539 1022.93C474.839 994.071 473.829 965.201 473.199 936.331C472.999 927.181 472.419 918.021 471.649 908.891C469.882 888.071 467.976 867.261 465.929 846.461C465.509 842.171 464.979 837.891 464.379 833.631C461.709 833.361 459.169 833.081 456.789 832.801C459.619 862.491 463.009 892.131 465.009 921.871C466.789 948.271 467.579 974.781 467.649 1001.25Z" fill="#EC8969"/>
<path d="M577.329 1142.55C577.549 1144.37 579.739 1145.95 581.019 1147.64C582.288 1145.96 583.405 1144.17 584.359 1142.3C584.839 1141.13 584.419 1139.57 584.359 1138.19C584.359 1137.5 584.259 1136.81 584.219 1136.12C581.753 1136.79 579.299 1137.45 576.859 1138.12C576.999 1139.6 577.149 1141.08 577.329 1142.55Z" fill="#EC8969"/>
<path d="M581.169 899.321C582.879 878.681 585.379 858.101 587.469 837.491C587.779 834.411 588.079 831.311 588.259 828.221C586.609 828.491 584.959 828.781 583.339 829.101C582.629 829.261 581.909 829.411 581.159 829.531L580.919 829.581C578.529 853.041 575.809 876.481 574.069 899.991C572.116 926.344 570.783 952.741 570.069 979.181C569.399 1004.34 569.929 1029.54 569.929 1054.72H570.749C571.919 1073.35 572.989 1091.97 574.309 1110.59C574.976 1119.78 575.826 1128.96 576.859 1138.11C579.299 1137.44 581.753 1136.78 584.219 1136.11C582.219 1107.31 579.689 1078.54 578.219 1049.72C575.659 999.541 576.999 949.391 581.169 899.321Z" fill="#EC8969"/>
<path d="M619.318 1007.82C622.468 1032.89 628.518 1057.59 633.498 1082.41C634.816 1088.3 636.485 1094.11 638.498 1099.8C639.008 1101.36 640.688 1102.55 641.828 1103.91C642.978 1102.6 644.908 1101.39 645.108 1099.91C645.379 1097.37 645.12 1094.8 644.348 1092.37C635.728 1063.17 629.278 1033.47 626.138 1003.22C623.408 976.93 621.068 950.5 620.638 924.1C620.278 901.83 622.118 879.52 623.348 857.23C620.828 850.23 618.918 843.89 617.468 838.48C615.648 863.74 613.848 889.14 611.828 917.48C613.998 945.6 615.428 976.87 619.318 1007.82Z" fill="#EC8969"/>
<path d="M489.85 844.109C488.404 845.683 487.068 847.354 485.85 849.109C485.38 849.859 485.74 851.109 485.78 852.179C487.15 883.629 493.43 1030.27 479.09 1115.36C478.66 1117.91 480.69 1122.93 482.09 1123.12C486.17 1123.67 486.29 1119.35 486.57 1116.49C488.81 1093.49 491.2 1070.49 492.86 1047.49C494.313 1027.33 495.277 1007.13 495.75 986.899C496.87 941.019 496.37 895.159 492.91 849.379C492.76 847.519 490.9 845.839 489.85 844.109Z" fill="#EC8969"/>
<path d="M656.381 1005.87C662.241 1024.82 671.091 1042.6 681.301 1059.65C683.241 1062.9 686.441 1062.86 687.131 1059.29C687.774 1055.86 687.246 1052.31 685.631 1049.22C675.619 1032.31 667.449 1014.37 661.261 995.721C650.518 963.564 643.921 930.167 641.631 896.341C638.631 891.181 635.881 886.091 633.441 881.141C634.013 903.184 636.495 925.136 640.861 946.751C644.901 966.691 650.371 986.411 656.381 1005.87Z" fill="#EC8969"/>
<path d="M422.139 973.9C419.262 1009.39 413.239 1044.56 404.139 1078.98C402.409 1085.43 400.749 1091.98 399.659 1098.5C399.399 1100.09 401.519 1102.07 402.539 1103.87C403.929 1102.39 406.079 1101.13 406.589 1099.39C416.708 1065.2 423.631 1030.15 427.269 994.69C429.859 968.4 431.009 941.98 432.479 920.37C432.049 911.29 431.679 902.94 431.319 895.02C429.219 901.46 426.992 907.839 424.639 914.159C424.719 934.079 423.829 954 422.139 973.9Z" fill="#EC8969"/>
<path d="M430.431 876.209C430.151 870.589 429.851 865.089 429.511 859.599C429.211 854.779 428.721 849.979 428.131 845.189C426.601 851.259 424.751 858.969 422.691 868.189C423.445 877.249 423.975 886.309 424.281 895.369C425.361 892.296 426.418 889.213 427.451 886.119C428.551 882.859 429.521 879.549 430.431 876.209Z" fill="#EC8969"/>
<path d="M393.58 964.491C376.47 994.881 356.46 1023.04 330.21 1046.38C328.376 1048.13 327.017 1050.32 326.26 1052.74C325.75 1054.27 326.68 1056.28 326.96 1058.07C328.8 1057.56 331.27 1057.64 332.39 1056.45C344.61 1043.37 357.57 1030.82 368.51 1016.72C392.76 985.471 410.94 950.911 424.65 914.161C424.65 907.901 424.526 901.641 424.28 895.381C415.91 919.211 406 942.421 393.58 964.491Z" fill="#EC8969"/>
<path d="M427.451 886.131C426.425 889.224 425.368 892.308 424.281 895.381C424.501 901.641 424.625 907.901 424.651 914.161C427.005 907.841 429.231 901.461 431.331 895.021C431.031 888.501 430.741 882.281 430.431 876.211C429.521 879.551 428.551 882.861 427.451 886.131Z" fill="#EC8969"/>
<path d="M427.661 845.16C424.941 853.22 395.191 919.53 379.601 942.94C368.341 959.85 355.491 975.3 338.081 986.35C336.081 987.64 333.791 988.59 331.821 989.97C328.821 992.09 327.061 998.14 328.971 1000.11C331.971 1003.11 334.261 999.87 336.761 998.85C337.689 998.388 338.57 997.835 339.391 997.2C357.791 985.26 371.591 968.9 383.661 950.92C401.661 924.12 414.121 894.69 424.811 864.41C426.311 860.41 428.041 856.41 429.231 852.24C430.001 849.69 431.111 846.21 427.661 845.16Z" fill="#EC8969"/>
<path d="M694.831 1003.45C696.091 1004.78 699.12 1006.51 699.66 1006.06C701.32 1004.66 702.181 1002.3 703.581 999.941C701.981 997.521 700.73 995.321 699.19 993.351C695.7 988.851 691.661 984.741 688.581 979.991C678.941 965.161 672.58 948.991 667.98 932.191C664.06 927.881 660.41 923.511 656.98 919.131C659.163 929.584 661.951 939.901 665.331 950.031C671.921 969.621 680.461 988.181 694.831 1003.45Z" fill="#EC8969"/>
<path d="M606.82 698.109C606.82 698.109 506.82 746.109 429.41 739.459C429.41 739.459 554.8 815.489 606.82 698.109Z" fill="#FF94A3"/>
<path d="M1191.84 1739.89H1345.62C1356.62 1732.42 1342.62 1659.37 1342.62 1659.37C1342.62 1659.37 1300.62 1643.45 1293.4 1675.83C1286.18 1708.21 1239.94 1718.48 1215.5 1722.43C1198.8 1725.15 1193.52 1734.34 1191.84 1739.89Z" fill="#928DEB"/>
<path d="M1204.23 1332.56C1205.67 1422.56 1277.14 1680.08 1277.14 1680.08C1277.14 1680.08 1300.88 1712.08 1353.23 1665.81C1353.23 1665.81 1341.37 1391.08 1324.7 1350.91C1317.7 1334.17 1341.44 1308.34 1373.56 1277.09C1402.43 1249.02 1438.13 1216.55 1464.56 1182.36C1479.29 1163.28 1491.15 1143.66 1497.32 1123.94C1526.91 1029.56 1502.25 946.16 1502.25 946.16L1354.73 985.41C1354.73 985.41 1202.79 1242.51 1204.23 1332.56Z" fill="#D13AAB"/>
<path d="M1373.56 1277.09C1402.43 1249.02 1438.13 1216.55 1464.56 1182.36L1406 1053.25L1373.56 1277.09Z" fill="#B52496"/>
<path d="M1649.83 1739.89C1660.83 1732.42 1646.83 1659.37 1646.83 1659.37C1646.83 1659.37 1604.83 1643.45 1597.62 1675.83C1590.41 1708.21 1544.16 1718.48 1519.71 1722.43C1502.98 1725.15 1497.71 1734.34 1496.03 1739.89" fill="#928DEB"/>
<path d="M1402.83 972.611C1402.83 972.611 1413.46 1288.12 1428.26 1352.8C1443.06 1417.48 1585.36 1675.28 1585.36 1675.28C1585.36 1675.28 1634.67 1690.84 1662.85 1655.45C1662.85 1655.45 1618.19 1413.97 1564.92 1339.3C1534.02 1295.97 1646.62 994.931 1540.61 931.461L1402.83 972.611Z" fill="#D13AAB"/>
<path d="M1310 586.611C1310 586.611 1339.8 636.891 1338.83 669.611C1337.86 702.331 1285.86 872.001 1262.4 903.241C1238.94 934.481 1039.72 845.861 1039.72 845.861L1055.12 826.081C1055.12 826.081 1204.62 841.481 1210.55 828.851C1216.48 816.221 1219.77 584.741 1310 586.611Z" fill="#E35B27"/>
<path d="M1540.28 820.489C1524.88 715.699 1483.36 567.309 1455.43 559.559C1431.72 552.979 1381.06 546.049 1331.11 554.199C1291.68 560.639 1210.18 591.549 1211.26 658.119C1211.94 700.249 1214.78 734.629 1214.78 734.629C1214.78 734.629 1227.78 759.629 1253.78 763.059C1258.61 774.269 1261.78 785.629 1266.91 794.879C1324.53 897.989 1320.29 1010.31 1320.29 1010.31C1363.16 1036.42 1569.66 981.629 1586.96 966.309C1615.12 941.369 1555.67 925.289 1540.28 820.489Z" fill="#928DEB"/>
<path d="M1403 581.43C1403 581.43 1460.72 572.26 1490.74 585.22C1520.76 598.18 1659.45 709 1679.81 742.36C1700.17 775.72 1697.53 899.36 1697.53 899.36L1659.89 909.91C1659.89 909.91 1622.21 782 1612.65 771.82C1603.09 761.64 1368 664.58 1403 581.43Z" fill="#E35B27"/>
<path d="M1376.09 550.52C1376.09 550.52 1430.09 545.009 1472.09 563.219C1491.44 571.609 1569.09 626.07 1569.09 626.07C1569.09 626.07 1571.49 694.589 1493.09 724.849C1413.29 755.639 1379.64 619.63 1379.64 619.63L1376.09 550.52Z" fill="#928DEB"/>
<path d="M1370.46 556.079C1372.64 559.999 1367.46 574.209 1356.93 582.139C1330.66 601.839 1301.54 598.699 1291.67 582.139C1286.18 572.919 1285.06 548.599 1284.93 541.019C1284.48 531.906 1284.56 522.774 1285.17 513.669L1323.29 490.199L1359.46 467.699C1352.37 522.509 1365.14 546.529 1370.46 556.079Z" fill="#E35B27"/>
<path d="M1354.71 505.299C1354.71 505.299 1330.45 533.739 1284.93 541.019C1284.48 531.906 1284.56 522.774 1285.17 513.669L1323.29 490.199L1354.71 505.299Z" fill="#CE4C24"/>
<path d="M1268.79 513.499C1268.79 513.499 1355.65 536.019 1368.9 482.559C1382.15 429.099 1402.29 396.019 1347.39 379.379C1292.49 362.739 1276.62 380.509 1267.79 397.279C1258.96 414.049 1246.53 506.259 1268.79 513.499Z" fill="#E35B27"/>
<path d="M1262.14 479.32C1262.91 481.748 1264.36 483.908 1266.3 485.551C1268.25 487.195 1270.62 488.255 1273.14 488.61C1281.97 489.87 1287.92 483.7 1287.92 483.7C1287.92 483.7 1273.57 476.57 1262.14 479.32Z" fill="white"/>
<path d="M1654 890.15C1654 890.15 1654 900.39 1652.84 903.56C1651.04 908.32 1643.97 906.81 1641.04 910.96C1634.47 920.25 1605.46 947.6 1611.04 952.24C1616.62 956.88 1631.54 943.97 1638.57 947.14C1645.6 950.31 1641.29 1004.24 1649.11 1006.39C1656.93 1008.54 1679.24 1002.98 1683.21 983.16C1687.18 963.34 1693.92 916.84 1697.58 899.35C1699.93 887.9 1654 890.15 1654 890.15Z" fill="#E35B27"/>
<path d="M1394.94 394.669C1389.03 381.759 1376.74 373.669 1366.66 363.669C1348.93 346.049 1343.72 319.269 1344.25 294.269C1344.78 269.269 1350.17 244.529 1349.86 219.529C1349.7 206.359 1347.86 192.889 1341.66 181.269C1335.46 169.649 1324.36 160.069 1311.3 158.329C1287.72 155.189 1267.85 187.389 1257.17 204.419C1239.09 233.269 1204.17 288.959 1230.62 339.929C1238.86 355.799 1252.91 370.929 1267.99 381.059C1270.01 382.447 1271.72 384.232 1273.03 386.306C1274.33 388.38 1275.2 390.698 1275.58 393.119C1277.79 406.009 1283.86 416.959 1296.98 422.429C1318.6 431.429 1350.3 413.909 1364.65 398.219C1353.24 410.699 1346.48 429.659 1345.71 446.559V447.209C1345.04 465.559 1368.51 473.429 1379.41 458.659C1380.92 456.556 1382.59 454.57 1384.41 452.719C1394.79 442.409 1399.3 404.189 1394.94 394.669Z" fill="#ECB14B"/>
<path d="M1303.69 592.539C1262.9 742.929 1381.38 1017.75 1381.38 1017.75C1398.86 1015.56 1417.17 1012.75 1436.2 1009.32C1458.56 1005.23 1479.67 1000.58 1499.45 995.609C1446.55 907.189 1418.95 831.369 1403.52 778.439C1403.52 778.439 1395.34 750.389 1358.18 582.359C1341.59 591.534 1322.48 595.105 1303.69 592.539Z" fill="#EEEEFF"/>
</svg>
